MutatorSansInstance_200-1000.ufo
<glyph name="comma" format="2">
  <advance width="295"/>
  <unicode hex="002C"/>
  <outline>
    <contour>
      <point x="187" y="0" type="line"/>
      <point x="187" y="236" type="line"/>
      <point x="109" y="236" type="line"/>
      <point x="109" y="0" type="line"/>
      <point x="150" y="-10" type="line"/>
      <point x="140" y="12" type="line"/>
      <point x="118" y="-103" type="line"/>
      <point x="142" y="-105" type="line"/>
    </contour>
  </outline>
</glyph>
<glyph name="A" format="2">
  <advance width="1218"/>
  <unicode hex="0041"/>
  <outline>
    <contour>
      <point x="52" y="0" type="line"/>
      <point x="156" y="0" type="line"/>
      <point x="626" y="720" type="line"/>
      <point x="536" y="720" type="line"/>
    </contour>
    <contour>
      <point x="246" y="203" type="line"/>
      <point x="952" y="203" type="line"/>
      <point x="952" y="271" type="line"/>
      <point x="246" y="271" type="line"/>
    </contour>
    <contour>
      <point x="1038" y="0" type="line"/>
      <point x="1174" y="0" type="line"/>
      <point x="690" y="720" type="line"/>
      <point x="562" y="720" type="line"/>
    </contour>
    <contour>
      <point x="546" y="639" type="line"/>
      <point x="670" y="639" type="line"/>
      <point x="670" y="720" type="line"/>
      <point x="546" y="720" type="line"/>
    </contour>
  </outline>
</glyph>
<glyph name="B" format="2">
  <advance width="1198"/>
  <unicode hex="0042"/>
  <outline>
    <contour>
      <point x="108" y="0" type="line"/>
      <point x="224" y="0" type="line"/>
      <point x="224" y="720" type="line"/>
      <point x="108" y="720" type="line"/>
    </contour>
    <contour>
      <point x="202" y="334" type="line"/>
      <point x="860" y="334" type="line" smooth="yes"/>
      <point x="964" y="334"/>
      <point x="1015" y="281"/>
      <point x="1015" y="204" type="curve" smooth="yes"/>
      <point x="1015" y="127"/>
      <point x="964" y="76"/>
      <point x="860" y="76" type="curve" smooth="yes"/>
      <point x="202" y="76" type="line"/>
      <point x="202" y="0" type="line"/>
      <point x="887" y="0" type="line" smooth="yes"/>
      <point x="1066" y="0"/>
      <point x="1130" y="85"/>
      <point x="1130" y="192" type="curve" smooth="yes"/>
      <point x="1130" y="290"/>
      <point x="1075" y="361"/>
      <point x="958" y="377" type="curve"/>
      <point x="936" y="351" type="line"/>
      <point x="1027" y="375"/>
      <point x="1076" y="440"/>
      <point x="1076" y="526" type="curve" smooth="yes"/>
      <point x="1076" y="637"/>
      <point x="1008" y="720"/>
      <point x="827" y="720" type="curve" smooth="yes"/>
      <point x="202" y="720" type="line"/>
      <point x="202" y="646" type="line"/>
      <point x="805" y="646" type="line" smooth="yes"/>
      <point x="910" y="646"/>
      <point x="961" y="595"/>
      <point x="961" y="519" type="curve" smooth="yes"/>
      <point x="961" y="440"/>
      <point x="910" y="390"/>
      <point x="805" y="390" type="curve" smooth="yes"/>
      <point x="202" y="390" type="line"/>
    </contour>
  </outline>
</glyph>
<glyph name="C" format="2">
  <advance width="1317"/>
  <unicode hex="0043"/>
  <outline>
    <contour>
      <point x="1128" y="294" type="line"/>
      <point x="1092" y="139"/>
      <point x="931" y="72"/>
      <point x="692" y="72" type="curve" smooth="yes"/>
      <point x="633" y="72" type="line" smooth="yes"/>
      <point x="362" y="72"/>
      <point x="190" y="159"/>
      <point x="190" y="362" type="curve" smooth="yes"/>
      <point x="190" y="564"/>
      <point x="362" y="648"/>
      <point x="633" y="648" type="curve" smooth="yes"/>
      <point x="692" y="648" type="line" smooth="yes"/>
      <point x="929" y="648"/>
      <point x="1090" y="584"/>
      <point x="1127" y="434" type="curve"/>
      <point x="1244" y="446" type="line"/>
      <point x="1201" y="638"/>
      <point x="1000" y="730"/>
      <point x="702" y="730" type="curve" smooth="yes"/>
      <point x="622" y="730" type="line" smooth="yes"/>
      <point x="284" y="730"/>
      <point x="72" y="612"/>
      <point x="72" y="362" type="curve" smooth="yes"/>
      <point x="72" y="111"/>
      <point x="284" y="-10"/>
      <point x="622" y="-10" type="curve" smooth="yes"/>
      <point x="702" y="-10" type="line" smooth="yes"/>
      <point x="1002" y="-10"/>
      <point x="1203" y="85"/>
      <point x="1245" y="282" type="curve"/>
    </contour>
  </outline>
</glyph>
<glyph name="D" format="2">
  <advance width="1205"/>
  <unicode hex="0044"/>
  <outline>
    <contour>
      <point x="108" y="0" type="line"/>
      <point x="224" y="0" type="line"/>
      <point x="224" y="720" type="line"/>
      <point x="108" y="720" type="line"/>
    </contour>
    <contour>
      <point x="198" y="640" type="line"/>
      <point x="572" y="640" type="line" smooth="yes"/>
      <point x="843" y="640"/>
      <point x="1015" y="564"/>
      <point x="1015" y="362" type="curve" smooth="yes"/>
      <point x="1015" y="159"/>
      <point x="843" y="80"/>
      <point x="572" y="80" type="curve" smooth="yes"/>
      <point x="198" y="80" type="line"/>
      <point x="198" y="0" type="line"/>
      <point x="582" y="0" type="line" smooth="yes"/>
      <point x="920" y="0"/>
      <point x="1133" y="111"/>
      <point x="1133" y="362" type="curve" smooth="yes"/>
      <point x="1133" y="612"/>
      <point x="920" y="720"/>
      <point x="582" y="720" type="curve" smooth="yes"/>
      <point x="198" y="720" type="line"/>
    </contour>
  </outline>
</glyph>
<glyph name="E" format="2">
  <advance width="1122"/>
  <unicode hex="0045"/>
  <anchor x="542" y="765" name="top"/>
  <outline>
    <contour>
      <point x="108" y="0" type="line"/>
      <point x="224" y="0" type="line"/>
      <point x="224" y="720" type="line"/>
      <point x="108" y="720" type="line"/>
    </contour>
    <contour>
      <point x="142" y="637" type="line"/>
      <point x="1014" y="637" type="line"/>
      <point x="1014" y="720" type="line"/>
      <point x="142" y="720" type="line"/>
    </contour>
    <contour>
      <point x="142" y="0" type="line"/>
      <point x="1014" y="0" type="line"/>
      <point x="1014" y="83" type="line"/>
      <point x="142" y="83" type="line"/>
    </contour>
    <contour>
      <point x="142" y="330" type="line"/>
      <point x="875" y="330" type="line"/>
      <point x="875" y="393" type="line"/>
      <point x="142" y="393" type="line"/>
    </contour>
  </outline>
</glyph>
<glyph name="F" format="2">
  <advance width="1162"/>
  <unicode hex="0046"/>
  <outline>
    <contour>
      <point x="108" y="0" type="line"/>
      <point x="224" y="0" type="line"/>
      <point x="224" y="720" type="line"/>
      <point x="108" y="720" type="line"/>
    </contour>
    <contour>
      <point x="142" y="637" type="line"/>
      <point x="1054" y="637" type="line"/>
      <point x="1054" y="720" type="line"/>
      <point x="142" y="720" type="line"/>
    </contour>
    <contour>
      <point x="142" y="282" type="line"/>
      <point x="1015" y="282" type="line"/>
      <point x="1015" y="357" type="line"/>
      <point x="142" y="357" type="line"/>
    </contour>
  </outline>
</glyph>
<glyph name="G" format="2">
  <advance width="1380"/>
  <unicode hex="0047"/>
  <outline>
    <contour>
      <point x="504" y="303" type="line"/>
      <point x="1165" y="303" type="line"/>
      <point x="1165" y="216" type="line"/>
      <point x="1219" y="0" type="line"/>
      <point x="1283" y="0" type="line"/>
      <point x="1283" y="348" type="line"/>
      <point x="504" y="348" type="line"/>
    </contour>
    <contour>
      <point x="1168" y="296" type="line"/>
      <point x="1132" y="141"/>
      <point x="971" y="72"/>
      <point x="732" y="72" type="curve" smooth="yes"/>
      <point x="633" y="72" type="line" smooth="yes"/>
      <point x="362" y="72"/>
      <point x="190" y="159"/>
      <point x="190" y="362" type="curve" smooth="yes"/>
      <point x="190" y="564"/>
      <point x="362" y="648"/>
      <point x="633" y="648" type="curve" smooth="yes"/>
      <point x="732" y="648" type="line" smooth="yes"/>
      <point x="969" y="648"/>
      <point x="1130" y="584"/>
      <point x="1167" y="434" type="curve"/>
      <point x="1284" y="446" type="line"/>
      <point x="1241" y="638"/>
      <point x="1040" y="730"/>
      <point x="742" y="730" type="curve" smooth="yes"/>
      <point x="622" y="730" type="line" smooth="yes"/>
      <point x="284" y="730"/>
      <point x="72" y="612"/>
      <point x="72" y="362" type="curve" smooth="yes"/>
      <point x="72" y="111"/>
      <point x="284" y="-10"/>
      <point x="622" y="-10" type="curve" smooth="yes"/>
      <point x="706" y="-10" type="line" smooth="yes"/>
      <point x="1006" y="-10"/>
      <point x="1199" y="87"/>
      <point x="1241" y="284" type="curve"/>
    </contour>
  </outline>
</glyph>
<glyph name="H" format="2">
  <advance width="1184"/>
  <unicode hex="0048"/>
  <outline>
    <contour>
      <point x="108" y="0" type="line"/>
      <point x="224" y="0" type="line"/>
      <point x="224" y="720" type="line"/>
      <point x="108" y="720" type="line"/>
    </contour>
    <contour>
      <point x="160" y="321" type="line"/>
      <point x="1029" y="321" type="line"/>
      <point x="1029" y="402" type="line"/>
      <point x="160" y="402" type="line"/>
    </contour>
    <contour>
      <point x="960" y="0" type="line"/>
      <point x="1076" y="0" type="line"/>
      <point x="1076" y="720" type="line"/>
      <point x="960" y="720" type="line"/>
    </contour>
  </outline>
</glyph>
<glyph name="I" format="2">
  <advance width="948"/>
  <unicode hex="0049"/>
  <outline>
    <contour>
      <point x="420" y="0" type="line"/>
      <point x="536" y="0" type="line"/>
      <point x="536" y="720" type="line"/>
      <point x="420" y="720" type="line"/>
    </contour>
    <contour>
      <point x="108" y="637" type="line"/>
      <point x="840" y="637" type="line"/>
      <point x="840" y="720" type="line"/>
      <point x="108" y="720" type="line"/>
    </contour>
    <contour>
      <point x="108" y="0" type="line"/>
      <point x="840" y="0" type="line"/>
      <point x="840" y="83" type="line"/>
      <point x="108" y="83" type="line"/>
    </contour>
  </outline>
</glyph>
<glyph name="J" format="2">
  <advance width="879"/>
  <unicode hex="004A"/>
  <outline>
    <contour>
      <point x="273" y="-10" type="curve" smooth="yes"/>
      <point x="578" y="-10"/>
      <point x="771" y="113"/>
      <point x="771" y="368" type="curve" smooth="yes"/>
      <point x="771" y="720" type="line"/>
      <point x="652" y="720" type="line"/>
      <point x="652" y="374" type="line" smooth="yes"/>
      <point x="652" y="167"/>
      <point x="506" y="78"/>
      <point x="273" y="78" type="curve" smooth="yes"/>
      <point x="224" y="78"/>
      <point x="174" y="83"/>
      <point x="126" y="92" type="curve"/>
      <point x="108" y="4" type="line"/>
      <point x="158" y="-5"/>
      <point x="213" y="-10"/>
    </contour>
  </outline>
</glyph>
<glyph name="K" format="2">
  <advance width="1078"/>
  <unicode hex="004B"/>
  <outline>
    <contour>
      <point x="108" y="0" type="line"/>
      <point x="224" y="0" type="line"/>
      <point x="224" y="720" type="line"/>
      <point x="108" y="720" type="line"/>
    </contour>
    <contour>
      <point x="172" y="298" type="line"/>
      <point x="278" y="298" type="line"/>
      <point x="834" y="0" type="line"/>
      <point x="1009" y="0" type="line"/>
      <point x="363" y="367" type="line"/>
      <point x="290" y="353" type="line"/>
      <point x="172" y="353" type="line"/>
    </contour>
    <contour>
      <point x="255" y="336" type="line"/>
      <point x="330" y="305" type="line"/>
      <point x="1007" y="720" type="line"/>
      <point x="858" y="720" type="line"/>
    </contour>
  </outline>
</glyph>
<glyph name="L" format="2">
  <advance width="990"/>
  <unicode hex="004C"/>
  <outline>
    <contour>
      <point x="108" y="0" type="line"/>
      <point x="224" y="0" type="line"/>
      <point x="224" y="720" type="line"/>
      <point x="108" y="720" type="line"/>
    </contour>
    <contour>
      <point x="142" y="0" type="line"/>
      <point x="954" y="0" type="line"/>
      <point x="954" y="85" type="line"/>
      <point x="142" y="85" type="line"/>
    </contour>
  </outline>
</glyph>
<glyph name="M" format="2">
  <advance width="1279"/>
  <unicode hex="004D"/>
  <outline>
    <contour>
      <point x="108" y="0" type="line"/>
      <point x="204" y="0" type="line"/>
      <point x="204" y="720" type="line"/>
      <point x="108" y="720" type="line"/>
    </contour>
    <contour>
      <point x="1171" y="0" type="line"/>
      <point x="1171" y="720" type="line"/>
      <point x="1075" y="720" type="line"/>
      <point x="1075" y="0" type="line"/>
    </contour>
    <contour>
      <point x="1112" y="612" type="line"/>
      <point x="1075" y="720" type="line"/>
      <point x="615" y="318" type="line"/>
      <point x="664" y="318" type="line"/>
      <point x="204" y="720" type="line"/>
      <point x="166" y="612" type="line"/>
      <point x="613" y="220" type="line"/>
      <point x="666" y="220" type="line"/>
    </contour>
  </outline>
</glyph>
<glyph name="N" format="2">
  <advance width="1211"/>
  <unicode hex="004E"/>
  <outline>
    <contour>
      <point x="108" y="0" type="line"/>
      <point x="204" y="0" type="line"/>
      <point x="204" y="720" type="line"/>
      <point x="108" y="720" type="line"/>
    </contour>
    <contour>
      <point x="167" y="622" type="line"/>
      <point x="1007" y="0" type="line"/>
      <point x="1045" y="99" type="line"/>
      <point x="204" y="720" type="line"/>
    </contour>
    <contour>
      <point x="1007" y="0" type="line"/>
      <point x="1103" y="0" type="line"/>
      <point x="1103" y="720" type="line"/>
      <point x="1007" y="720" type="line"/>
    </contour>
  </outline>
</glyph>
<glyph name="O" format="2">
  <advance width="1333"/>
  <unicode hex="004F"/>
  <outline>
    <contour>
      <point x="622" y="-10" type="curve" smooth="yes"/>
      <point x="710" y="-10" type="line" smooth="yes"/>
      <point x="1048" y="-10"/>
      <point x="1261" y="111"/>
      <point x="1261" y="362" type="curve" smooth="yes"/>
      <point x="1261" y="612"/>
      <point x="1048" y="730"/>
      <point x="710" y="730" type="curve" smooth="yes"/>
      <point x="622" y="730" type="line" smooth="yes"/>
      <point x="284" y="730"/>
      <point x="72" y="612"/>
      <point x="72" y="362" type="curve" smooth="yes"/>
      <point x="72" y="111"/>
      <point x="284" y="-10"/>
    </contour>
    <contour>
      <point x="633" y="72" type="line" smooth="yes"/>
      <point x="362" y="72"/>
      <point x="190" y="159"/>
      <point x="190" y="362" type="curve" smooth="yes"/>
      <point x="190" y="564"/>
      <point x="362" y="648"/>
      <point x="633" y="648" type="curve" smooth="yes"/>
      <point x="700" y="648" type="line" smooth="yes"/>
      <point x="971" y="648"/>
      <point x="1143" y="564"/>
      <point x="1143" y="362" type="curve" smooth="yes"/>
      <point x="1143" y="159"/>
      <point x="971" y="72"/>
      <point x="700" y="72" type="curve" smooth="yes"/>
    </contour>
  </outline>
</glyph>
<glyph name="P" format="2">
  <advance width="1124"/>
  <unicode hex="0050"/>
  <outline>
    <contour>
      <point x="108" y="0" type="line"/>
      <point x="224" y="0" type="line"/>
      <point x="224" y="720" type="line"/>
      <point x="108" y="720" type="line"/>
    </contour>
    <contour>
      <point x="174" y="631" type="line"/>
      <point x="649" y="631" type="line" smooth="yes"/>
      <point x="906" y="631"/>
      <point x="981" y="560"/>
      <point x="981" y="437" type="curve" smooth="yes"/>
      <point x="981" y="312"/>
      <point x="906" y="243"/>
      <point x="649" y="243" type="curve" smooth="yes"/>
      <point x="174" y="243" type="line"/>
      <point x="174" y="153" type="line"/>
      <point x="635" y="153" type="line" smooth="yes"/>
      <point x="1010" y="153"/>
      <point x="1088" y="273"/>
      <point x="1088" y="437" type="curve" smooth="yes"/>
      <point x="1088" y="601"/>
      <point x="1010" y="720"/>
      <point x="635" y="720" type="curve" smooth="yes"/>
      <point x="174" y="720" type="line"/>
    </contour>
  </outline>
</glyph>
<glyph name="Q" format="2">
  <advance width="1333"/>
  <unicode hex="0051"/>
  <outline>
    <contour>
      <point x="678" y="-130" type="line"/>
      <point x="798" y="-130" type="line"/>
      <point x="690" y="44" type="line"/>
      <point x="581" y="30" type="line"/>
    </contour>
    <component base="O"/>
  </outline>
</glyph>
<glyph name="R" format="2">
  <advance width="1172"/>
  <unicode hex="0052"/>
  <outline>
    <contour>
      <point x="934" y="0" type="line"/>
      <point x="1075" y="0" type="line"/>
      <point x="956" y="95" type="line" smooth="yes"/>
      <point x="878" y="159"/>
      <point x="829" y="192"/>
      <point x="779" y="190" type="curve"/>
      <point x="706" y="190" type="line"/>
    </contour>
    <contour>
      <point x="108" y="0" type="line"/>
      <point x="224" y="0" type="line"/>
      <point x="224" y="720" type="line"/>
      <point x="108" y="720" type="line"/>
    </contour>
    <contour>
      <point x="174" y="631" type="line"/>
      <point x="657" y="631" type="line" smooth="yes"/>
      <point x="906" y="631"/>
      <point x="978" y="560"/>
      <point x="978" y="437" type="curve" smooth="yes"/>
      <point x="978" y="312"/>
      <point x="906" y="243"/>
      <point x="657" y="243" type="curve" smooth="yes"/>
      <point x="174" y="243" type="line"/>
      <point x="174" y="165" type="line"/>
      <point x="635" y="165" type="line" smooth="yes"/>
      <point x="1010" y="165"/>
      <point x="1088" y="283"/>
      <point x="1088" y="443" type="curve" smooth="yes"/>
      <point x="1088" y="603"/>
      <point x="1010" y="720"/>
      <point x="635" y="720" type="curve" smooth="yes"/>
      <point x="174" y="720" type="line"/>
    </contour>
  </outline>
</glyph>
<glyph name="S" format="2">
  <advance width="1194"/>
  <unicode hex="0053"/>
  <outline>
    <contour>
      <point x="1100" y="203" type="curve" smooth="yes"/>
      <point x="1100" y="346"/>
      <point x="1011" y="394"/>
      <point x="708" y="404" type="curve" smooth="yes"/>
      <point x="527" y="410" type="line" smooth="yes"/>
      <point x="333" y="416"/>
      <point x="220" y="438"/>
      <point x="220" y="525" type="curve" smooth="yes"/>
      <point x="220" y="605"/>
      <point x="315" y="651"/>
      <point x="547" y="651" type="curve" smooth="yes"/>
      <point x="613" y="651" type="line" smooth="yes"/>
      <point x="810" y="651"/>
      <point x="948" y="615"/>
      <point x="1052" y="570" type="curve"/>
      <point x="1077" y="642" type="line"/>
      <point x="966" y="691"/>
      <point x="801" y="728"/>
      <point x="621" y="728" type="curve" smooth="yes"/>
      <point x="573" y="728" type="line" smooth="yes"/>
      <point x="257" y="728"/>
      <point x="118" y="659"/>
      <point x="118" y="520" type="curve" smooth="yes"/>
      <point x="118" y="389"/>
      <point x="219" y="337"/>
      <point x="510" y="327" type="curve" smooth="yes"/>
      <point x="688" y="322" type="line" smooth="yes"/>
      <point x="896" y="315"/>
      <point x="996" y="300"/>
      <point x="996" y="207" type="curve" smooth="yes"/>
      <point x="996" y="116"/>
      <point x="893" y="69"/>
      <point x="613" y="69" type="curve" smooth="yes"/>
      <point x="550" y="69" type="line" smooth="yes"/>
      <point x="374" y="69"/>
      <point x="229" y="104"/>
      <point x="120" y="151" type="curve"/>
      <point x="99" y="78" type="line"/>
      <point x="216" y="27"/>
      <point x="385" y="-8"/>
      <point x="542" y="-8" type="curve" smooth="yes"/>
      <point x="593" y="-8" type="line" smooth="yes"/>
      <point x="960" y="-8"/>
      <point x="1100" y="70"/>
    </contour>
  </outline>
</glyph>
<glyph name="T" format="2">
  <advance width="1164"/>
  <unicode hex="0054"/>
  <outline>
    <contour>
      <point x="524" y="0" type="line"/>
      <point x="640" y="0" type="line"/>
      <point x="640" y="720" type="line"/>
      <point x="524" y="720" type="line"/>
    </contour>
    <contour>
      <point x="36" y="629" type="line"/>
      <point x="1128" y="629" type="line"/>
      <point x="1128" y="720" type="line"/>
      <point x="36" y="720" type="line"/>
    </contour>
  </outline>
</glyph>
<glyph name="U" format="2">
  <advance width="1210"/>
  <unicode hex="0055"/>
  <outline>
    <contour>
      <point x="605" y="-10" type="curve" smooth="yes"/>
      <point x="906" y="-10"/>
      <point x="1096" y="113"/>
      <point x="1096" y="368" type="curve" smooth="yes"/>
      <point x="1096" y="720" type="line"/>
      <point x="978" y="720" type="line"/>
      <point x="978" y="368" type="line" smooth="yes"/>
      <point x="978" y="165"/>
      <point x="834" y="78"/>
      <point x="605" y="78" type="curve" smooth="yes"/>
      <point x="377" y="78"/>
      <point x="232" y="165"/>
      <point x="232" y="368" type="curve" smooth="yes"/>
      <point x="232" y="720" type="line"/>
      <point x="114" y="720" type="line"/>
      <point x="114" y="368" type="line" smooth="yes"/>
      <point x="114" y="113"/>
      <point x="303" y="-10"/>
    </contour>
  </outline>
</glyph>
<glyph name="V" format="2">
  <advance width="1200"/>
  <unicode hex="0056"/>
  <outline>
    <contour>
      <point x="1164" y="720" type="line"/>
      <point x="1061" y="720" type="line"/>
      <point x="594" y="0" type="line"/>
      <point x="686" y="0" type="line"/>
    </contour>
    <contour>
      <point x="173" y="720" type="line"/>
      <point x="36" y="720" type="line"/>
      <point x="516" y="0" type="line"/>
      <point x="646" y="0" type="line"/>
    </contour>
    <contour>
      <point x="672" y="81" type="line"/>
      <point x="540" y="81" type="line"/>
      <point x="540" y="0" type="line"/>
      <point x="672" y="0" type="line"/>
    </contour>
  </outline>
</glyph>
<glyph name="W" format="2">
  <advance width="1367"/>
  <unicode hex="0057"/>
  <outline>
    <contour>
      <point x="1329" y="720" type="line"/>
      <point x="1221" y="720" type="line"/>
      <point x="968" y="104" type="line"/>
      <point x="983" y="104" type="line"/>
      <point x="723" y="720" type="line"/>
      <point x="648" y="720" type="line"/>
      <point x="401" y="96" type="line"/>
      <point x="420" y="96" type="line"/>
      <point x="157" y="720" type="line"/>
      <point x="36" y="720" type="line"/>
      <point x="334" y="0" type="line"/>
      <point x="436" y="0" type="line"/>
      <point x="685" y="619" type="line"/>
      <point x="659" y="618" type="line"/>
      <point x="929" y="0" type="line"/>
      <point x="1040" y="0" type="line"/>
    </contour>
  </outline>
</glyph>
<glyph name="X" format="2">
  <advance width="1072"/>
  <unicode hex="0058"/>
  <outline>
    <contour>
      <point x="890" y="0" type="line"/>
      <point x="1036" y="0" type="line"/>
      <point x="578" y="391" type="line"/>
      <point x="190" y="720" type="line"/>
      <point x="44" y="720" type="line"/>
      <point x="486" y="356" type="line"/>
    </contour>
    <contour>
      <point x="38" y="-2" type="line"/>
      <point x="166" y="0" type="line"/>
      <point x="543" y="345" type="line"/>
      <point x="578" y="343" type="line"/>
      <point x="1028" y="720" type="line"/>
      <point x="898" y="720" type="line"/>
      <point x="520" y="390" type="line"/>
      <point x="483" y="392" type="line"/>
    </contour>
  </outline>
</glyph>
<glyph name="Y" format="2">
  <advance width="1034"/>
  <unicode hex="0059"/>
  <outline>
    <contour>
      <point x="1006" y="720" type="line"/>
      <point x="896" y="720" type="line"/>
      <point x="502" y="202" type="line"/>
      <point x="568" y="179" type="line"/>
    </contour>
    <contour>
      <point x="154" y="720" type="line"/>
      <point x="28" y="720" type="line"/>
      <point x="464" y="179" type="line"/>
      <point x="560" y="202" type="line"/>
    </contour>
    <contour>
      <point x="575" y="245" type="line"/>
      <point x="459" y="245" type="line"/>
      <point x="459" y="0" type="line"/>
      <point x="575" y="0" type="line"/>
    </contour>
  </outline>
</glyph>
<glyph name="Z" format="2">
  <advance width="1216"/>
  <unicode hex="005A"/>
  <outline>
    <contour>
      <point x="108" y="85" type="line"/>
      <point x="240" y="49" type="line"/>
      <point x="1108" y="635" type="line"/>
      <point x="976" y="671" type="line"/>
    </contour>
    <contour>
      <point x="108" y="635" type="line"/>
      <point x="1108" y="635" type="line"/>
      <point x="1108" y="720" type="line"/>
      <point x="108" y="720" type="line"/>
    </contour>
    <contour>
      <point x="108" y="0" type="line"/>
      <point x="1108" y="0" type="line"/>
      <point x="1108" y="85" type="line"/>
      <point x="108" y="85" type="line"/>
    </contour>
  </outline>
</glyph>
